# xmcd CD database file
#
# Track frame offsets:
#	150
#	16939
#	27867
#	39147
#	48072
#	64082
#	76671
#	86472
#	102311
#	113280
#	119172
#
# Disc length: 1737 seconds
#
# Revision: 0
# Processed by: cddbd v1.5.1PL0 Copyright (c) Steve Scherf et al.
# Submitted via: CDex 1.40Beta9
#
DISCID=7206c70b
DTITLE=Ben Prestage - Instrumental Instability
DYEAR=2002
DGENRE=Blues
TTITLE0=Allegheny County
TTITLE1=Jitterboogie
TTITLE2=Renee's Waltz
TTITLE3=5'2"
TTITLE4=Angela
TTITLE5=Judy
TTITLE6=The Claw
TTITLE7=Listen to the Mockingbird
TTITLE8=Airproofing
TTITLE9=Doc's Guitar
TTITLE10=Windy and Warm
EXTD=YEAR: 2002 ID3G: 0
EXTT0=
EXTT1=
EXTT2=
EXTT3=
EXTT4=
EXTT5=
EXTT6=
EXTT7=
EXTT8=
EXTT9=
EXTT10=
PLAYORDER=
